<?xml version="1.0" encoding="UTF-8" standalone="no"?>
<svg
   xmlns:dc="http://purl.org/dc/elements/1.1/"
   xmlns:cc="http://creativecommons.org/ns#"
   xmlns:rdf="http://www.w3.org/1999/02/22-rdf-syntax-ns#"
   xmlns:svg="http://www.w3.org/2000/svg"
   xmlns="http://www.w3.org/2000/svg"
   xmlns:sodipodi="http://sodipodi.sourceforge.net/DTD/sodipodi-0.dtd"
   xmlns:inkscape="http://www.inkscape.org/namespaces/inkscape"
   width="210mm"
   height="297mm"
   viewBox="0 0 210 297"
   version="1.1"
   id="svg1209"
   inkscape:version="1.0.2-2 (e86c870879, 2021-01-15)"
   sodipodi:docname="search-documents_hca.svg"
   inkscape:export-filename="C:\Users\nh\Downloads\search-documents_hca.png"
   inkscape:export-xdpi="300"
   inkscape:export-ydpi="300">
  <defs
     id="defs1203" />
  <sodipodi:namedview
     id="base"
     pagecolor="#ffffff"
     bordercolor="#666666"
     borderopacity="1.0"
     inkscape:pageopacity="0.0"
     inkscape:pageshadow="2"
     inkscape:zoom="0.35"
     inkscape:cx="-281.42857"
     inkscape:cy="560"
     inkscape:document-units="mm"
     inkscape:current-layer="layer1"
     inkscape:document-rotation="0"
     showgrid="false"
     inkscape:window-width="1406"
     inkscape:window-height="1040"
     inkscape:window-x="78"
     inkscape:window-y="0"
     inkscape:window-maximized="0" />
  <metadata
     id="metadata1206">
    <rdf:RDF>
      <cc:Work
         rdf:about="">
        <dc:format>image/svg+xml</dc:format>
        <dc:type
           rdf:resource="http://purl.org/dc/dcmitype/StillImage" />
        <dc:title></dc:title>
      </cc:Work>
    </rdf:RDF>
  </metadata>
  <g
     inkscape:label="Lag 1"
     inkscape:groupmode="layer"
     id="layer1">
    <g
       id="layer1-1"
       transform="matrix(1.7914849,0,0,1.5665434,-52.391707,-30.324877)">
      <g
         id="g2298"
         transform="matrix(0.78306,0,0,0.78306,-447.41,-120.69)">
        <rect
           id="rect2296"
           style="fill:#ffffff;stroke:#000000;stroke-width:3.75;stroke-linecap:round;stroke-linejoin:round"
           height="146"
           width="110"
           y="180.36"
           x="648" />
        <rect
           id="rect2294"
           style="fill:#ffffff;stroke:#000000;stroke-width:3.75;stroke-linecap:round;stroke-linejoin:round"
           height="146"
           width="110"
           y="198.36"
           x="634" />
        <rect
           id="rect2280"
           style="fill:#ffffff;stroke:#000000;stroke-width:3.75;stroke-linecap:round;stroke-linejoin:round"
           height="146"
           width="110"
           y="214.36"
           x="620" />
        <path
           id="path2282"
           style="fill:none;stroke:#000000;stroke-width:2.6135"
           d="m 636.25,258.36 h 77.5" />
        <path
           id="path2284"
           style="fill:none;stroke:#000000;stroke-width:2.6135"
           d="m 636.25,278.36 h 77.5" />
        <path
           id="path2286"
           style="fill:none;stroke:#000000;stroke-width:2.6135"
           d="m 636.25,298.36 h 77.5" />
        <path
           id="path2288"
           style="fill:none;stroke:#000000;stroke-width:2.6135"
           d="m 636.25,318.36 h 77.5" />
        <path
           id="path2290"
           style="fill:none;stroke:#000000;stroke-width:2.6135"
           d="m 636.25,338.36 h 77.5" />
        <path
           id="path2292"
           style="fill:none;stroke:#000000;stroke-width:2.6135"
           d="m 636.25,238.36 h 77.5" />
      </g>
    </g>
    <g
       transform="matrix(-0.00193659,-0.01264556,-0.01264556,0.00193659,213.53214,207.71864)"
       fill="#000000"
       stroke="none"
       id="g103">
      <path
         d="m 8450,12560 c -74,-4 -187,-15 -250,-24 -63,-9 -135,-19 -160,-21 -25,-3 -74,-13 -110,-21 -36,-9 -76,-18 -90,-20 -168,-29 -502,-135 -736,-235 -110,-46 -337,-158 -393,-193 -20,-13 -70,-43 -111,-67 -165,-96 -439,-294 -560,-403 -120,-108 -433,-430 -490,-502 -8,-11 -40,-51 -70,-89 -31,-39 -70,-90 -86,-115 -17,-25 -60,-88 -96,-140 -57,-83 -248,-409 -248,-423 0,-3 -17,-43 -39,-89 -131,-282 -195,-464 -273,-771 -37,-149 -52,-235 -78,-442 -27,-226 -40,-392 -40,-525 0,-162 37,-585 60,-690 6,-25 17,-79 25,-120 24,-120 52,-241 70,-300 59,-196 111,-344 164,-465 10,-22 24,-56 31,-75 57,-145 257,-497 398,-701 177,-255 523,-628 736,-794 22,-16 64,-51 95,-76 143,-118 462,-319 676,-426 266,-134 630,-267 865,-318 8,-2 44,-10 80,-19 36,-8 79,-17 95,-20 122,-22 217,-37 236,-38 13,0 49,-5 79,-10 135,-22 476,-33 677,-21 109,6 221,14 248,18 28,4 70,9 95,11 95,10 225,34 425,79 70,16 228,60 270,75 28,10 68,24 90,31 41,12 209,77 280,108 22,10 56,24 75,32 63,24 302,149 409,214 148,90 377,247 435,300 6,6 36,30 66,53 159,124 426,390 550,548 17,21 48,59 68,83 20,24 63,80 94,125 31,45 65,92 75,106 37,49 123,189 123,199 0,6 5,11 10,11 6,0 10,4 10,10 0,5 15,33 33,62 32,50 187,358 187,371 0,4 11,30 24,59 13,29 38,94 56,143 18,50 37,99 41,110 16,34 81,260 110,380 74,300 124,796 107,1065 -14,233 -29,414 -38,460 -5,25 -14,79 -20,120 -6,41 -20,113 -31,160 -11,47 -29,123 -40,170 -18,74 -44,161 -94,315 -19,57 -63,172 -85,220 -10,22 -28,63 -40,90 -167,379 -365,691 -648,1025 -63,75 -332,344 -411,411 -35,30 -69,59 -75,64 -29,26 -127,101 -254,192 -102,72 -407,255 -507,303 -38,18 -97,46 -130,62 -194,96 -627,243 -836,283 -44,9 -134,26 -154,30 -58,12 -88,16 -175,26 -52,5 -129,15 -170,20 -101,14 -464,19 -630,9 z m 540,-505 c 200,-18 323,-36 478,-71 1540,-345 2671,-1637 2803,-3203 15,-177 6,-601 -15,-755 -57,-401 -159,-743 -325,-1091 C 11503,6040 10691,5341 9745,5055 9244,4904 8701,4862 8190,4936 6753,5144 5582,6198 5225,7605 c -83,328 -109,568 -102,950 7,348 38,586 113,863 225,830 748,1560 1466,2043 664,448 1501,665 2288,594 z"
         id="path87" />
      <path
         d="m 8010,11380 c -8,-5 -10,-10 -5,-10 6,0 17,5 25,10 8,5 11,10 5,10 -5,0 -17,-5 -25,-10 z"
         id="path89" />
      <path
         d="m 7915,11349 c -54,-22 -75,-36 -35,-24 37,12 107,44 95,44 -5,0 -32,-9 -60,-20 z"
         id="path91" />
      <path
         d="m 7810,11305 c -14,-8 -20,-14 -15,-14 6,0 21,6 35,14 14,8 21,14 15,14 -5,0 -21,-6 -35,-14 z"
         id="path93" />
      <path
         d="m 7760,11280 c -9,-6 -10,-10 -3,-10 6,0 15,5 18,10 8,12 4,12 -15,0 z"
         id="path95" />
      <path
         d="m 7648,11224 c -38,-20 -36,-28 2,-9 17,9 30,18 30,20 0,7 -1,6 -32,-11 z"
         id="path97" />
      <path
         d="m 5180,9086 c 0,-2 8,-10 18,-17 15,-13 16,-12 3,4 -13,16 -21,21 -21,13 z"
         id="path99" />
      <path
         d="m 4953,6236 c -154,-50 -243,-170 -243,-326 0,-91 28,-164 88,-231 l 46,-52 -134,-128 c -74,-71 -138,-128 -142,-129 -4,0 -45,39 -92,88 l -85,87 -178,-177 C 4115,5271 3205,4371 2192,3367 L 348,1543 298,1537 C 47,1507 -85,1202 67,1003 86,978 289,757 517,514 892,113 939,67 994,40 c 228,-112 487,46 487,297 v 62 l 1497,1482 c 823,816 1729,1713 2012,1996 l 515,513 -97,97 -97,98 135,126 135,126 37,-35 c 64,-61 134,-87 232,-87 71,0 94,4 141,26 194,91 258,340 131,507 -19,26 -137,155 -261,287 -125,132 -311,331 -415,443 -162,173 -198,207 -251,233 -74,36 -176,47 -242,25 z"
         id="path101" />
    </g>
  </g>
</svg>
